<svg width="1080" height="1080" viewBox="0 0 1080 1080" fill="none" xmlns="http://www.w3.org/2000/svg">
<path d="M373.04 606.8C282.06 606.8 208.05 532.79 208.05 441.81C208.05 350.83 282.07 276.82 373.04 276.82C464.01 276.82 538.03 350.83 538.03 441.81C538.03 532.79 464.02 606.8 373.04 606.8ZM373.04 347.25C320.9 347.25 278.48 389.67 278.48 441.81C278.48 493.95 320.9 536.37 373.04 536.37C425.18 536.37 467.59 493.95 467.59 441.81C467.59 389.67 425.17 347.25 373.04 347.25Z" fill="white"/>
<path d="M704.64 603.6C624.58 603.6 559.45 538.46 559.45 458.41C559.45 378.36 624.58 313.22 704.64 313.22C784.7 313.22 849.83 378.36 849.83 458.41C849.83 538.46 784.69 603.6 704.64 603.6ZM704.64 377.25C659.89 377.25 623.48 413.66 623.48 458.41C623.48 503.16 659.89 539.57 704.64 539.57C749.39 539.57 785.8 503.16 785.8 458.41C785.8 413.66 749.39 377.25 704.64 377.25Z" fill="white"/>
<path d="M415.45 380.55C395.42 380.55 379.12 396.85 379.12 416.88C379.12 436.91 395.42 453.2 415.45 453.2C435.48 453.2 451.77 436.91 451.77 416.88C451.77 396.85 435.48 380.55 415.45 380.55Z" fill="white"/>
<path d="M733.16 397.36C715.23 397.36 700.64 411.95 700.64 429.88C700.64 447.81 715.23 462.4 733.16 462.4C751.09 462.4 765.68 447.81 765.68 429.88C765.68 411.95 751.09 397.36 733.16 397.36Z" fill="white"/>
<path d="M10.7201 384.22C-0.0899186 320.54 11.1801 257.7 41.6201 211.79C60.9501 182.65 90.1801 160.19 123.68 147.79C126.15 136.83 129.63 125.98 134.09 115.43C148.23 82.01 170.39 54.99 198.16 37.29C226.13 19.47 260.93 10.59 298.89 11.54C343.64 12.69 386.57 27.54 419.78 53.35C456.32 81.75 480.54 123.11 486.23 166.85L420.58 175.4C417.17 149.23 401.69 123.14 379.15 105.63C357.02 88.43 327.91 78.52 297.18 77.73C279.99 77.32 254.97 79.61 233.73 93.13C218.55 102.8 205.52 118.45 196.72 137.46C223.27 139.34 251.29 147.39 270.61 165.66C287.63 181.74 295.84 203.21 294.36 227.75C293.05 249.43 283.52 270.34 267.54 286.63C251.51 302.95 231.37 312.03 210.84 312.21C191.2 312.11 171.44 304.09 156.21 289.5C145.15 278.91 136.25 264.91 129.75 247.87C126.63 239.69 124.19 231.22 122.45 222.55C112.22 229.64 103.39 238.42 96.7801 248.38C75.5401 280.41 67.9601 325.88 75.9801 373.14L10.7101 384.21L10.7201 384.22ZM186.27 203.21C187.28 210.5 189.07 217.57 191.62 224.26C194.6 232.06 198.1 237.93 202.02 241.68C205.12 244.65 208.46 245.99 210.28 245.99H210.31C212.42 245.97 216.45 244.16 220.31 240.24C224.97 235.5 227.95 229.33 228.29 223.74C228.66 217.62 226.94 215.46 225.15 213.77C218.45 207.44 203.08 203.48 186.26 203.21H186.27Z" fill="white"/>
<path d="M350.88 886.84L350.9 886.55L350.37 887.9C349.25 890.21 345.46 895.68 341.46 896.87C338.24 897.85 332.84 896.35 326.52 892.78L250.86 837.37L215.29 885.93L292.22 942.27L294.6 943.85C309.92 952.98 323.67 956.58 335.34 957.23C345.18 957.78 353.53 956.23 360.06 954.12C388.48 944.95 401.89 919.74 404.84 913.49L480.09 764.31L426.35 737.21L350.87 886.84H350.88Z" fill="white"/>
<path d="M1035.68 475.99L986.34 520.14C986.59 520.42 1010.79 548.66 1006.59 584.07C1003.53 609.91 986.11 635.03 954.8 658.83C951.26 647 945.91 635.43 938.3 624.49C909.1 582.51 851.85 554.93 803.22 586.45C761.36 613.6 748.4 671.23 774.93 712.29C797.52 747.26 841.65 759.81 882.4 757.85C864.72 800.23 813.77 824.71 772.55 829.62C691.97 839.25 643.49 827.17 619.97 791.61C611.6 778.96 605.64 763.42 600.44 748.52L537.93 770.32C537.97 770.45 538.02 770.57 538.06 770.7L537.93 770.68L508.25 969.59C506.86 976.92 503.14 1004.68 520.35 1028.51C529.08 1040.61 546.29 1055.68 578.72 1058.93L654.78 1068.52L662.3 1008.8L585.84 999.17L584.97 999.07C577.12 998.31 571.38 996.24 569.23 993.39C566.72 990.05 566.9 983.4 567.25 981.42L586.35 853.74C620.57 885.72 666.04 896.27 705.64 898.63C737.17 900.51 764.97 897.19 780.38 895.35C844.95 887.65 921.42 847.44 946.68 774.96C950.76 763.25 954.51 750.13 957.09 736.26C968.25 730.22 978.05 723.66 986.49 717.66C1038.32 680.82 1067.24 638.09 1072.45 590.66C1079.6 525.51 1037.46 477.97 1035.66 475.98L1035.68 475.99ZM830.55 676.35C823.58 665.57 827.65 649.52 839.26 641.99C842.5 639.89 846.13 639.12 849.94 639.35C862.3 640.09 876.38 651.4 883.96 662.29C889.62 670.43 892.57 679.98 893.73 689.97C870.39 694.54 839.81 690.65 830.57 676.35H830.55Z" fill="white"/>
</svg>
