<svg width="1080" height="1080" viewBox="0 0 1080 1080" fill="none" xmlns="http://www.w3.org/2000/svg">
<path d="M675.73 851.17C658.8 855.24 635.67 858.1 621.65 848.69C608.9 840.13 604.63 822.27 603.84 818.4L506.76 214.57L393.09 232.84L489.69 833.73C491.47 846.36 502.48 905.91 555.29 942.78C574.77 956.38 604.84 969.97 647.49 969.97C664.1 969.97 682.62 967.91 703.15 962.99L822.31 933.11L794.31 821.43L675.73 851.17Z" fill="black"/>
<path d="M828.648 48.4112L555.536 222.336L617.378 319.446L890.49 145.522L828.648 48.4112Z" fill="black"/>
<path d="M224.6 441.5C110.42 441.5 17.52 534.4 17.52 648.58C17.52 762.76 110.42 855.66 224.6 855.66C338.78 855.66 431.68 762.76 431.68 648.58C431.68 534.4 338.78 441.5 224.6 441.5ZM224.6 763.56C161.2 763.56 109.63 711.98 109.63 648.59C109.63 585.2 161.21 533.61 224.6 533.61C287.99 533.61 339.57 585.19 339.57 648.59C339.57 711.99 287.99 763.56 224.6 763.56Z" fill="black"/>
<path d="M822.62 270.49C690.36 270.49 582.76 378.09 582.76 510.35C582.76 642.61 690.36 750.2 822.62 750.2C954.88 750.2 1062.47 642.6 1062.47 510.35C1062.47 378.1 954.87 270.49 822.62 270.49ZM822.62 650.42C745.38 650.42 682.54 587.58 682.54 510.35C682.54 433.12 745.38 370.27 822.62 370.27C899.86 370.27 962.69 433.11 962.69 510.35C962.69 587.59 899.85 650.42 822.62 650.42Z" fill="black"/>
<path d="M325.64 419.49L350.07 375.99L374.75 332.63C367.13 328.28 186.11 227.99 18.25 368.72L82.36 445.18C196.26 349.68 320.41 416.58 325.64 419.48V419.49Z" fill="black"/>
<path d="M166.3 605.04C142.29 605.04 122.76 624.57 122.76 648.58C122.76 672.59 142.29 692.12 166.3 692.12C190.31 692.12 209.84 672.59 209.84 648.58C209.84 624.57 190.31 605.04 166.3 605.04Z" fill="black"/>
<path d="M738.82 470.94C715.16 470.94 695.92 490.19 695.92 513.84C695.92 537.49 715.17 556.74 738.82 556.74C762.47 556.74 781.72 537.49 781.72 513.84C781.72 490.19 762.47 470.94 738.82 470.94Z" fill="black"/>
</svg>
